<?xml version="1.0" standalone="no"?>
<!DOCTYPE svg PUBLIC "-//W3C//DTD SVG 20010904//EN"
 "http://www.w3.org/TR/2001/REC-SVG-20010904/DTD/svg10.dtd">
<svg version="1.0" xmlns="http://www.w3.org/2000/svg"
 width="557.000000pt" height="557.000000pt" viewBox="0 0 557.000000 557.000000"
 preserveAspectRatio="xMidYMid meet">
<metadata>
Created by potrace 1.14, written by Peter Selinger 2001-2017
</metadata>
<g transform="translate(0.000000,557.000000) scale(0.100000,-0.100000)"
fill="#000000" stroke="none">
<path d="M899 4236 c-2 -2 -20 -7 -40 -10 -90 -14 -251 -87 -371 -168 -128
-86 -298 -245 -298 -278 0 -65 57 -218 95 -257 8 -7 22 -23 32 -36 25 -31 118
-104 144 -112 17 -6 30 3 64 41 l43 49 -5 -93 c-3 -79 -1 -93 13 -99 11 -4 28
8 57 43 244 292 520 465 715 446 l38 -4 -87 -86 c-124 -125 -227 -290 -309
-497 -52 -132 -113 -357 -136 -499 -3 -21 -7 -48 -10 -59 -8 -44 -26 -193 -39
-322 -4 -46 -14 -245 -20 -426 -4 -129 -12 -180 -45 -284 -44 -141 -147 -348
-307 -617 -98 -163 -141 -264 -159 -368 -10 -58 -11 -269 -2 -340 4 -30 8 -56
8 -57 0 -2 759 -3 1687 -3 l1686 0 61 29 c34 16 81 38 106 50 71 33 85 64 86
200 1 62 -2 130 -7 150 -4 20 -17 83 -29 140 -12 57 -30 128 -40 157 -17 53
-17 53 5 74 18 17 27 19 46 11 78 -33 242 -57 321 -46 71 10 146 60 179 120
28 50 71 182 93 285 l12 54 44 2 c254 14 313 32 354 112 40 78 8 121 -112 152
-40 10 -265 13 -392 5 -30 -2 -130 -6 -221 -10 l-166 -7 3 61 c3 74 -18 150
-56 207 -52 75 -119 99 -196 69 -74 -28 -91 -81 -54 -164 11 -24 20 -52 20
-63 0 -11 -23 -70 -50 -132 -43 -96 -51 -124 -54 -188 -3 -80 -11 -103 -28
-92 -22 14 -70 13 -104 -1 -29 -12 -41 -28 -83 -119 -27 -57 -59 -127 -72
-155 -21 -49 -35 -65 -36 -38 -1 36 -32 198 -82 432 -64 301 -64 303 -8 505
55 197 68 247 73 280 3 14 7 33 10 42 7 23 12 48 36 183 28 156 30 364 4 480
-106 477 -365 795 -756 928 -139 47 -208 58 -400 62 -204 5 -365 -17 -492 -65
l-52 -19 -60 57 c-34 31 -63 59 -66 62 -21 24 -142 107 -202 139 -111 60 -190
83 -294 87 -50 2 -93 2 -95 0z"/>
<path d="M3985 3719 c-8 -11 -10 -63 -21 -379 -8 -244 -11 -340 -13 -357 0 -6
-27 -26 -58 -45 -32 -18 -70 -40 -84 -48 -14 -8 -53 -31 -87 -50 -59 -33 -78
-53 -67 -70 5 -7 64 -24 125 -34 75 -13 186 -38 191 -44 4 -4 64 -147 135
-319 117 -288 143 -338 165 -316 7 8 14 147 24 468 3 94 8 184 11 200 4 24 28
48 120 118 63 48 114 95 114 103 0 24 -49 36 -266 68 -27 4 -23 -6 -154 406
-39 124 -79 244 -87 268 -15 40 -35 53 -48 31z"/>
<path d="M5046 2548 c-6 -45 -10 -85 -21 -203 -8 -77 -12 -101 -19 -113 -2 -4
-43 -27 -90 -52 -81 -43 -103 -61 -91 -80 3 -5 50 -22 104 -39 98 -31 99 -31
116 -73 10 -24 38 -95 64 -158 30 -75 52 -116 63 -118 20 -4 25 13 34 108 9
106 10 124 12 179 l2 49 90 57 c86 54 104 75 79 91 -6 4 -52 17 -101 30 -49
12 -91 24 -93 26 -2 1 -25 77 -52 168 -42 141 -53 165 -71 168 -17 3 -21 -3
-26 -40z"/>
</g>
</svg>
